<svg xmlns="http://www.w3.org/2000/svg" xmlns:xlink="http://www.w3.org/1999/xlink" width="500" zoomAndPan="magnify" viewBox="0 0 375 374.999991" height="500" preserveAspectRatio="xMidYMid meet" version="1.0"><defs><g/><clipPath id="54d5e7fc4b"><path d="M 114.640625 73.5 L 208 73.5 L 208 218 L 114.640625 218 Z M 114.640625 73.5 " clip-rule="nonzero"/></clipPath><clipPath id="f36386217a"><path d="M 167 93 L 260.140625 93 L 260.140625 241.5 L 167 241.5 Z M 167 93 " clip-rule="nonzero"/></clipPath></defs><g fill="#ffffff" fill-opacity="1"><g transform="translate(93.92565, 278.202653)"><g><path d="M 13.40625 -18.402344 L 13.40625 -14.058594 L 6.90625 -14.058594 L 6.90625 -23.574219 C 3.792969 -23.574219 1.28125 -21.265625 1.28125 -18.402344 L 1.28125 -14.058594 L 1.253906 -14.058594 C 1.253906 -13.859375 1.253906 -13.65625 1.28125 -13.480469 L 1.28125 0.351562 C 4.394531 0.351562 6.90625 -1.957031 6.90625 -4.796875 L 6.90625 -9.140625 L 13.40625 -9.140625 L 13.40625 0.351562 C 16.519531 0.351562 19.03125 -1.957031 19.03125 -4.796875 L 19.03125 -23.574219 C 15.941406 -23.574219 13.40625 -21.265625 13.40625 -18.402344 Z M 13.40625 -18.402344 "/></g></g></g><g fill="#ffffff" fill-opacity="1"><g transform="translate(114.257109, 278.202653)"><g><path d="M 14.863281 -20.5625 L 11.800781 -14.160156 L 8.710938 -20.5625 C 7.457031 -23.171875 4.117188 -24.480469 1.253906 -23.097656 L 8.6875 -7.707031 L 5.046875 -0.101562 C 7.910156 1.28125 10.71875 0.0234375 11.976562 -2.609375 L 21.792969 -23.046875 C 18.957031 -24.429688 16.117188 -23.171875 14.863281 -20.5625 Z M 14.863281 -20.5625 "/></g></g></g><g fill="#ffffff" fill-opacity="1"><g transform="translate(137.374725, 278.202653)"><g><path d="M 17.976562 -18.957031 C 17.574219 -20.011719 17.023438 -20.890625 16.269531 -21.59375 C 15.515625 -22.320312 14.636719 -22.847656 13.582031 -23.222656 C 12.527344 -23.601562 11.347656 -23.800781 10.042969 -23.800781 L 6.628906 -23.800781 C 4.066406 -23.800781 1.253906 -21.367188 1.253906 -18.378906 L 1.253906 0 C 4.394531 0 6.953125 -2.9375 6.953125 -6.578125 L 6.953125 -6.777344 L 9.765625 -6.777344 C 11.023438 -6.777344 12.203125 -6.980469 13.28125 -7.332031 C 14.386719 -7.683594 15.316406 -8.234375 16.09375 -8.964844 C 16.871094 -9.691406 17.5 -10.59375 17.925781 -11.648438 C 18.378906 -12.730469 18.578125 -13.960938 18.578125 -15.367188 L 18.578125 -15.414062 C 18.578125 -16.746094 18.378906 -17.925781 17.976562 -18.957031 Z M 12.90625 -15.0625 C 12.90625 -14.109375 12.605469 -13.355469 12.027344 -12.804688 C 11.449219 -12.226562 10.671875 -11.949219 9.640625 -11.949219 L 6.953125 -11.949219 L 6.953125 -18.277344 L 9.617188 -18.277344 C 10.644531 -18.277344 11.449219 -18 12.027344 -17.472656 C 12.605469 -16.945312 12.90625 -16.167969 12.90625 -15.140625 Z M 12.90625 -15.0625 "/></g></g></g><g fill="#ffffff" fill-opacity="1"><g transform="translate(157.254369, 278.202653)"><g><path d="M 6.453125 -9.316406 L 11.875 -9.316406 L 13.105469 -14.488281 L 6.453125 -14.488281 L 6.453125 -18.078125 L 11.5 -18.078125 C 14.5625 -18.078125 16.59375 -20.5625 16.59375 -23.652344 L 6.402344 -23.652344 C 3.414062 -23.652344 0.980469 -21.214844 0.980469 -18.203125 L 0.980469 -5.324219 C 0.980469 -2.359375 3.339844 0 6.300781 0 L 9.941406 0 C 13.003906 0 15.390625 -2.484375 15.390625 -5.574219 L 6.453125 -5.574219 Z M 6.453125 -9.316406 "/></g></g></g><g fill="#ffffff" fill-opacity="1"><g transform="translate(174.849863, 278.202653)"><g><path d="M 14.335938 -7.882812 C 14.964844 -8.210938 15.515625 -8.585938 15.992188 -9.039062 C 16.796875 -9.765625 17.398438 -10.671875 17.851562 -11.75 C 18.304688 -12.828125 18.503906 -14.085938 18.503906 -15.492188 L 18.503906 -15.566406 C 18.503906 -16.898438 18.304688 -18.078125 17.902344 -19.132812 C 17.5 -20.1875 16.921875 -21.066406 16.167969 -21.792969 C 15.441406 -22.519531 14.511719 -23.046875 13.457031 -23.425781 C 12.402344 -23.800781 11.199219 -24.003906 9.917969 -24.003906 L 6.453125 -24.003906 C 3.867188 -24.003906 1.03125 -21.566406 1.03125 -18.554688 L 1.03125 0 C 4.191406 0 6.777344 -2.960938 6.777344 -6.652344 L 6.777344 -6.855469 L 9.140625 -6.855469 L 12.253906 -2.210938 C 13.832031 0.152344 16.671875 0.703125 19.03125 -0.878906 Z M 6.777344 -18.453125 L 9.464844 -18.453125 C 10.519531 -18.453125 11.324219 -18.175781 11.902344 -17.625 C 12.476562 -17.097656 12.78125 -16.292969 12.78125 -15.265625 L 12.78125 -15.191406 C 12.78125 -14.234375 12.476562 -13.480469 11.902344 -12.90625 C 11.324219 -12.351562 10.519531 -12.050781 9.492188 -12.050781 L 6.777344 -12.050781 Z M 6.777344 -18.453125 "/></g></g></g><g fill="#ffffff" fill-opacity="1"><g transform="translate(194.729507, 278.202653)"><g><path d="M 15.238281 -11.597656 C 13.933594 -13.332031 11.851562 -14.460938 9.515625 -14.460938 L 7.832031 -14.460938 C 6.855469 -14.460938 6.050781 -15.265625 6.050781 -16.242188 L 6.050781 -16.417969 C 6.050781 -17.398438 6.855469 -18.203125 7.832031 -18.203125 L 10.242188 -18.203125 C 13.03125 -18.203125 15.289062 -20.539062 15.289062 -23.574219 L 7.832031 -23.574219 C 3.890625 -23.574219 0.679688 -20.363281 0.679688 -16.417969 L 0.679688 -16.242188 C 0.679688 -14.636719 1.207031 -13.15625 2.109375 -11.949219 C 3.414062 -10.21875 5.472656 -9.089844 7.832031 -9.089844 L 9.515625 -9.089844 C 10.46875 -9.089844 11.296875 -8.285156 11.296875 -7.332031 L 11.296875 -7.128906 C 11.296875 -6.175781 10.46875 -5.347656 9.515625 -5.347656 L 6.503906 -5.347656 C 3.714844 -5.347656 1.457031 -3.039062 1.457031 0 L 9.515625 0 C 13.457031 0 16.671875 -3.1875 16.671875 -7.128906 L 16.671875 -7.332031 C 16.671875 -8.914062 16.144531 -10.394531 15.238281 -11.597656 Z M 15.238281 -11.597656 "/></g></g></g><g fill="#ffffff" fill-opacity="1"><g transform="translate(211.822994, 278.202653)"><g><path d="M 4.945312 -23.476562 C 2.132812 -23.476562 -0.125 -21.390625 -0.125 -18.351562 L 6.425781 -18.351562 L 6.425781 0 C 9.464844 0 11.925781 -2.257812 11.925781 -5.046875 L 11.925781 -18.351562 L 13.40625 -18.351562 C 16.21875 -18.351562 18.480469 -20.4375 18.480469 -23.476562 Z M 4.945312 -23.476562 "/></g></g></g><g fill="#ffffff" fill-opacity="1"><g transform="translate(230.221705, 278.202653)"><g><path d="M 13.757812 -20.511719 C 13.433594 -21.792969 12.753906 -22.671875 11.648438 -23.300781 C 11.046875 -23.652344 10.394531 -23.828125 9.691406 -23.828125 C 8.988281 -23.828125 8.335938 -23.652344 7.757812 -23.300781 C 6.652344 -22.671875 5.949219 -21.792969 5.648438 -20.511719 L 0.175781 -0.152344 C 3.011719 0.527344 5.800781 -1.003906 6.453125 -3.589844 L 6.730469 -4.71875 L 6.828125 -5.296875 L 12.554688 -5.296875 L 12.679688 -4.71875 L 12.957031 -3.589844 C 13.582031 -1.003906 16.394531 0.527344 19.207031 -0.152344 Z M 11.675781 -9.515625 L 7.707031 -9.515625 L 9.691406 -17.148438 Z M 11.675781 -9.515625 "/></g></g></g><g fill="#ffffff" fill-opacity="1"><g transform="translate(249.724845, 278.202653)"><g><path d="M 1.355469 -2.988281 C 1.730469 -2.210938 2.308594 -1.554688 2.988281 -1.03125 C 3.839844 -0.375 4.894531 0.0234375 6.050781 0.125 L 6.050781 0.152344 L 10.570312 0.152344 C 13.433594 0.152344 15.71875 -1.832031 15.71875 -4.921875 L 7.683594 -4.921875 C 6.878906 -4.921875 6.402344 -5.472656 6.277344 -6.226562 L 6.277344 -15.113281 C 6.25 -15.191406 6.25 -15.265625 6.25 -15.367188 L 6.25 -16.996094 C 6.25 -17.074219 6.25 -17.148438 6.277344 -17.222656 C 6.378906 -17.953125 7.03125 -18.503906 7.734375 -18.578125 L 11.199219 -18.578125 L 11.199219 -17.976562 C 13.882812 -17.976562 15.589844 -19.859375 15.589844 -22.320312 L 15.589844 -23.652344 L 5.421875 -23.652344 C 2.761719 -23.5 0.953125 -21.566406 0.953125 -18.578125 C 0.953125 -18.554688 0.953125 -18.527344 0.953125 -18.527344 L 0.953125 -4.996094 C 0.953125 -4.292969 1.105469 -3.617188 1.355469 -2.988281 Z M 1.355469 -2.988281 "/></g></g></g><g fill="#ffffff" fill-opacity="1"><g transform="translate(267.069331, 278.202653)"><g><path d="M 12.453125 -11.449219 C 12.125 -12 11.949219 -12.226562 11.472656 -12.578125 L 17.777344 -23.347656 C 15.191406 -24.878906 12.652344 -24.226562 11.246094 -21.816406 L 6.730469 -14.109375 L 6.730469 -24.179688 C 3.691406 -24.179688 1.253906 -21.941406 1.253906 -19.15625 L 1.253906 -0.152344 C 4.269531 -0.152344 6.730469 -2.386719 6.730469 -5.171875 L 6.730469 -9.113281 C 7.03125 -9.089844 7.355469 -9.140625 7.65625 -9.1875 L 11.824219 -2.257812 C 13.257812 0.125 16.570312 0.652344 18.90625 -0.753906 Z M 12.453125 -11.449219 "/></g></g></g><g fill="#ffffff" fill-opacity="1"><g transform="translate(90.903091, 296.606568)"><g><path d="M 0.765625 -5.40625 L 2.25 -5.40625 C 2.914062 -5.40625 3.40625 -5.289062 3.71875 -5.0625 C 4.03125 -4.832031 4.1875 -4.488281 4.1875 -4.03125 C 4.1875 -3.71875 4.085938 -3.457031 3.890625 -3.25 C 3.703125 -3.039062 3.425781 -2.90625 3.0625 -2.84375 L 3.0625 -2.828125 C 3.488281 -2.765625 3.800781 -2.628906 4 -2.421875 C 4.207031 -2.210938 4.3125 -1.921875 4.3125 -1.546875 C 4.3125 -1.054688 4.144531 -0.675781 3.8125 -0.40625 C 3.488281 -0.132812 3.023438 0 2.421875 0 L 0.765625 0 Z M 1.140625 -3 L 2.328125 -3 C 2.835938 -3 3.207031 -3.082031 3.4375 -3.25 C 3.664062 -3.414062 3.78125 -3.679688 3.78125 -4.046875 C 3.78125 -4.398438 3.648438 -4.65625 3.390625 -4.8125 C 3.128906 -4.976562 2.742188 -5.0625 2.234375 -5.0625 L 1.140625 -5.0625 Z M 1.140625 -2.65625 L 1.140625 -0.328125 L 2.40625 -0.328125 C 3.40625 -0.328125 3.90625 -0.734375 3.90625 -1.546875 C 3.90625 -2.285156 3.378906 -2.65625 2.328125 -2.65625 Z M 1.140625 -2.65625 "/></g></g></g><g fill="#ffffff" fill-opacity="1"><g transform="translate(98.569126, 296.606568)"><g><path d="M 3.71875 0 L 0.765625 0 L 0.765625 -5.40625 L 3.71875 -5.40625 L 3.71875 -5.046875 L 1.140625 -5.046875 L 1.140625 -3.015625 L 3.578125 -3.015625 L 3.578125 -2.65625 L 1.140625 -2.65625 L 1.140625 -0.34375 L 3.71875 -0.34375 Z M 3.71875 0 "/></g></g></g><g fill="#ffffff" fill-opacity="1"><g transform="translate(105.666644, 296.606568)"><g><path d="M 2 -2.4375 L 3.578125 -5.40625 L 3.984375 -5.40625 L 2.1875 -2.09375 L 2.1875 0 L 1.8125 0 L 1.8125 -2.0625 L 0 -5.40625 L 0.4375 -5.40625 Z M 2 -2.4375 "/></g></g></g><g fill="#ffffff" fill-opacity="1"><g transform="translate(112.58327, 296.606568)"><g><path d="M 5.296875 -2.703125 C 5.296875 -1.847656 5.082031 -1.171875 4.65625 -0.671875 C 4.226562 -0.171875 3.640625 0.078125 2.890625 0.078125 C 2.140625 0.078125 1.546875 -0.171875 1.109375 -0.671875 C 0.679688 -1.171875 0.46875 -1.851562 0.46875 -2.71875 C 0.46875 -3.570312 0.679688 -4.242188 1.109375 -4.734375 C 1.546875 -5.234375 2.140625 -5.484375 2.890625 -5.484375 C 3.648438 -5.484375 4.238281 -5.234375 4.65625 -4.734375 C 5.082031 -4.242188 5.296875 -3.566406 5.296875 -2.703125 Z M 0.890625 -2.703125 C 0.890625 -1.929688 1.0625 -1.332031 1.40625 -0.90625 C 1.75 -0.488281 2.242188 -0.28125 2.890625 -0.28125 C 3.535156 -0.28125 4.03125 -0.488281 4.375 -0.90625 C 4.71875 -1.320312 4.890625 -1.921875 4.890625 -2.703125 C 4.890625 -3.484375 4.71875 -4.082031 4.375 -4.5 C 4.03125 -4.914062 3.535156 -5.125 2.890625 -5.125 C 2.253906 -5.125 1.757812 -4.910156 1.40625 -4.484375 C 1.0625 -4.066406 0.890625 -3.472656 0.890625 -2.703125 Z M 0.890625 -2.703125 "/></g></g></g><g fill="#ffffff" fill-opacity="1"><g transform="translate(121.286665, 296.606568)"><g><path d="M 4.6875 0 L 4.3125 0 L 1.109375 -4.796875 L 1.078125 -4.796875 C 1.109375 -4.222656 1.125 -3.789062 1.125 -3.5 L 1.125 0 L 0.765625 0 L 0.765625 -5.40625 L 1.140625 -5.40625 L 4.328125 -0.609375 L 4.359375 -0.609375 C 4.335938 -1.054688 4.328125 -1.476562 4.328125 -1.875 L 4.328125 -5.40625 L 4.6875 -5.40625 Z M 4.6875 0 "/></g></g></g><g fill="#ffffff" fill-opacity="1"><g transform="translate(129.665194, 296.606568)"><g><path d="M 4.859375 -2.75 C 4.859375 -1.84375 4.617188 -1.15625 4.140625 -0.6875 C 3.671875 -0.226562 2.976562 0 2.0625 0 L 0.765625 0 L 0.765625 -5.40625 L 2.21875 -5.40625 C 3.082031 -5.40625 3.738281 -5.175781 4.1875 -4.71875 C 4.632812 -4.269531 4.859375 -3.613281 4.859375 -2.75 Z M 4.453125 -2.734375 C 4.453125 -3.503906 4.253906 -4.082031 3.859375 -4.46875 C 3.472656 -4.863281 2.898438 -5.0625 2.140625 -5.0625 L 1.140625 -5.0625 L 1.140625 -0.328125 L 2.03125 -0.328125 C 3.644531 -0.328125 4.453125 -1.128906 4.453125 -2.734375 Z M 4.453125 -2.734375 "/></g></g></g><g fill="#ffffff" fill-opacity="1"><g transform="translate(137.929278, 296.606568)"><g/></g></g><g fill="#ffffff" fill-opacity="1"><g transform="translate(142.819175, 296.606568)"><g><path d="M 3.0625 -5.140625 C 2.382812 -5.140625 1.851562 -4.921875 1.46875 -4.484375 C 1.082031 -4.054688 0.890625 -3.460938 0.890625 -2.703125 C 0.890625 -1.929688 1.070312 -1.332031 1.4375 -0.90625 C 1.800781 -0.476562 2.328125 -0.265625 3.015625 -0.265625 C 3.460938 -0.265625 3.875 -0.328125 4.25 -0.453125 L 4.25 -0.109375 C 3.894531 0.015625 3.453125 0.078125 2.921875 0.078125 C 2.160156 0.078125 1.5625 -0.164062 1.125 -0.65625 C 0.6875 -1.144531 0.46875 -1.832031 0.46875 -2.71875 C 0.46875 -3.257812 0.570312 -3.738281 0.78125 -4.15625 C 0.988281 -4.582031 1.285156 -4.90625 1.671875 -5.125 C 2.066406 -5.351562 2.523438 -5.46875 3.046875 -5.46875 C 3.578125 -5.46875 4.046875 -5.375 4.453125 -5.1875 L 4.3125 -4.84375 C 3.914062 -5.039062 3.5 -5.140625 3.0625 -5.140625 Z M 3.0625 -5.140625 "/></g></g></g><g fill="#ffffff" fill-opacity="1"><g transform="translate(150.440908, 296.606568)"><g><path d="M 5.296875 -2.703125 C 5.296875 -1.847656 5.082031 -1.171875 4.65625 -0.671875 C 4.226562 -0.171875 3.640625 0.078125 2.890625 0.078125 C 2.140625 0.078125 1.546875 -0.171875 1.109375 -0.671875 C 0.679688 -1.171875 0.46875 -1.851562 0.46875 -2.71875 C 0.46875 -3.570312 0.679688 -4.242188 1.109375 -4.734375 C 1.546875 -5.234375 2.140625 -5.484375 2.890625 -5.484375 C 3.648438 -5.484375 4.238281 -5.234375 4.65625 -4.734375 C 5.082031 -4.242188 5.296875 -3.566406 5.296875 -2.703125 Z M 0.890625 -2.703125 C 0.890625 -1.929688 1.0625 -1.332031 1.40625 -0.90625 C 1.75 -0.488281 2.242188 -0.28125 2.890625 -0.28125 C 3.535156 -0.28125 4.03125 -0.488281 4.375 -0.90625 C 4.71875 -1.320312 4.890625 -1.921875 4.890625 -2.703125 C 4.890625 -3.484375 4.71875 -4.082031 4.375 -4.5 C 4.03125 -4.914062 3.535156 -5.125 2.890625 -5.125 C 2.253906 -5.125 1.757812 -4.910156 1.40625 -4.484375 C 1.0625 -4.066406 0.890625 -3.472656 0.890625 -2.703125 Z M 0.890625 -2.703125 "/></g></g></g><g fill="#ffffff" fill-opacity="1"><g transform="translate(159.144302, 296.606568)"><g><path d="M 4.859375 -2.75 C 4.859375 -1.84375 4.617188 -1.15625 4.140625 -0.6875 C 3.671875 -0.226562 2.976562 0 2.0625 0 L 0.765625 0 L 0.765625 -5.40625 L 2.21875 -5.40625 C 3.082031 -5.40625 3.738281 -5.175781 4.1875 -4.71875 C 4.632812 -4.269531 4.859375 -3.613281 4.859375 -2.75 Z M 4.453125 -2.734375 C 4.453125 -3.503906 4.253906 -4.082031 3.859375 -4.46875 C 3.472656 -4.863281 2.898438 -5.0625 2.140625 -5.0625 L 1.140625 -5.0625 L 1.140625 -0.328125 L 2.03125 -0.328125 C 3.644531 -0.328125 4.453125 -1.128906 4.453125 -2.734375 Z M 4.453125 -2.734375 "/></g></g></g><g fill="#ffffff" fill-opacity="1"><g transform="translate(167.408386, 296.606568)"><g><path d="M 3.71875 0 L 0.765625 0 L 0.765625 -5.40625 L 3.71875 -5.40625 L 3.71875 -5.046875 L 1.140625 -5.046875 L 1.140625 -3.015625 L 3.578125 -3.015625 L 3.578125 -2.65625 L 1.140625 -2.65625 L 1.140625 -0.34375 L 3.71875 -0.34375 Z M 3.71875 0 "/></g></g></g><g fill="#ffffff" fill-opacity="1"><g transform="translate(174.505902, 296.606568)"><g><path d="M 1.09375 -0.875 L 1.140625 -0.796875 C 0.953125 -0.148438 0.734375 0.4375 0.484375 0.96875 L 0.25 0.96875 C 0.4375 0.289062 0.570312 -0.320312 0.65625 -0.875 Z M 1.09375 -0.875 "/></g></g></g><g fill="#ffffff" fill-opacity="1"><g transform="translate(179.056165, 296.606568)"><g/></g></g><g fill="#ffffff" fill-opacity="1"><g transform="translate(183.946062, 296.606568)"><g><path d="M 0.765625 0 L 0.765625 -5.40625 L 1.140625 -5.40625 L 1.140625 0 Z M 0.765625 0 "/></g></g></g><g fill="#ffffff" fill-opacity="1"><g transform="translate(188.776892, 296.606568)"><g><path d="M 4.6875 0 L 4.3125 0 L 1.109375 -4.796875 L 1.078125 -4.796875 C 1.109375 -4.222656 1.125 -3.789062 1.125 -3.5 L 1.125 0 L 0.765625 0 L 0.765625 -5.40625 L 1.140625 -5.40625 L 4.328125 -0.609375 L 4.359375 -0.609375 C 4.335938 -1.054688 4.328125 -1.476562 4.328125 -1.875 L 4.328125 -5.40625 L 4.6875 -5.40625 Z M 4.6875 0 "/></g></g></g><g fill="#ffffff" fill-opacity="1"><g transform="translate(197.155418, 296.606568)"><g><path d="M 2.171875 0 L 1.796875 0 L 1.796875 -5.046875 L 0.03125 -5.046875 L 0.03125 -5.40625 L 3.921875 -5.40625 L 3.921875 -5.046875 L 2.171875 -5.046875 Z M 2.171875 0 "/></g></g></g><g fill="#ffffff" fill-opacity="1"><g transform="translate(204.042509, 296.606568)"><g><path d="M 5.296875 -2.703125 C 5.296875 -1.847656 5.082031 -1.171875 4.65625 -0.671875 C 4.226562 -0.171875 3.640625 0.078125 2.890625 0.078125 C 2.140625 0.078125 1.546875 -0.171875 1.109375 -0.671875 C 0.679688 -1.171875 0.46875 -1.851562 0.46875 -2.71875 C 0.46875 -3.570312 0.679688 -4.242188 1.109375 -4.734375 C 1.546875 -5.234375 2.140625 -5.484375 2.890625 -5.484375 C 3.648438 -5.484375 4.238281 -5.234375 4.65625 -4.734375 C 5.082031 -4.242188 5.296875 -3.566406 5.296875 -2.703125 Z M 0.890625 -2.703125 C 0.890625 -1.929688 1.0625 -1.332031 1.40625 -0.90625 C 1.75 -0.488281 2.242188 -0.28125 2.890625 -0.28125 C 3.535156 -0.28125 4.03125 -0.488281 4.375 -0.90625 C 4.71875 -1.320312 4.890625 -1.921875 4.890625 -2.703125 C 4.890625 -3.484375 4.71875 -4.082031 4.375 -4.5 C 4.03125 -4.914062 3.535156 -5.125 2.890625 -5.125 C 2.253906 -5.125 1.757812 -4.910156 1.40625 -4.484375 C 1.0625 -4.066406 0.890625 -3.472656 0.890625 -2.703125 Z M 0.890625 -2.703125 "/></g></g></g><g fill="#ffffff" fill-opacity="1"><g transform="translate(212.745902, 296.606568)"><g/></g></g><g fill="#ffffff" fill-opacity="1"><g transform="translate(217.635799, 296.606568)"><g><path d="M 2.171875 0 L 1.796875 0 L 1.796875 -5.046875 L 0.03125 -5.046875 L 0.03125 -5.40625 L 3.921875 -5.40625 L 3.921875 -5.046875 L 2.171875 -5.046875 Z M 2.171875 0 "/></g></g></g><g fill="#ffffff" fill-opacity="1"><g transform="translate(224.52289, 296.606568)"><g><path d="M 4.671875 0 L 4.296875 0 L 4.296875 -2.65625 L 1.140625 -2.65625 L 1.140625 0 L 0.765625 0 L 0.765625 -5.40625 L 1.140625 -5.40625 L 1.140625 -3 L 4.296875 -3 L 4.296875 -5.40625 L 4.671875 -5.40625 Z M 4.671875 0 "/></g></g></g><g fill="#ffffff" fill-opacity="1"><g transform="translate(232.88665, 296.606568)"><g><path d="M 3.71875 0 L 0.765625 0 L 0.765625 -5.40625 L 3.71875 -5.40625 L 3.71875 -5.046875 L 1.140625 -5.046875 L 1.140625 -3.015625 L 3.578125 -3.015625 L 3.578125 -2.65625 L 1.140625 -2.65625 L 1.140625 -0.34375 L 3.71875 -0.34375 Z M 3.71875 0 "/></g></g></g><g fill="#ffffff" fill-opacity="1"><g transform="translate(239.984166, 296.606568)"><g/></g></g><g fill="#ffffff" fill-opacity="1"><g transform="translate(244.874063, 296.606568)"><g><path d="M 1.140625 0 L 0.765625 0 L 0.765625 -5.40625 L 3.71875 -5.40625 L 3.71875 -5.046875 L 1.140625 -5.046875 L 1.140625 -2.765625 L 3.578125 -2.765625 L 3.578125 -2.40625 L 1.140625 -2.40625 Z M 1.140625 0 "/></g></g></g><g fill="#ffffff" fill-opacity="1"><g transform="translate(251.595029, 296.606568)"><g><path d="M 4.734375 -5.40625 L 4.734375 -1.90625 C 4.734375 -1.28125 4.550781 -0.789062 4.1875 -0.4375 C 3.832031 -0.09375 3.332031 0.078125 2.6875 0.078125 C 2.0625 0.078125 1.570312 -0.0976562 1.21875 -0.453125 C 0.875 -0.804688 0.703125 -1.296875 0.703125 -1.921875 L 0.703125 -5.40625 L 1.078125 -5.40625 L 1.078125 -1.90625 C 1.078125 -1.382812 1.222656 -0.976562 1.515625 -0.6875 C 1.804688 -0.40625 2.210938 -0.265625 2.734375 -0.265625 C 3.253906 -0.265625 3.65625 -0.40625 3.9375 -0.6875 C 4.21875 -0.96875 4.359375 -1.363281 4.359375 -1.875 L 4.359375 -5.40625 Z M 4.734375 -5.40625 "/></g></g></g><g fill="#ffffff" fill-opacity="1"><g transform="translate(259.958798, 296.606568)"><g><path d="M 2.171875 0 L 1.796875 0 L 1.796875 -5.046875 L 0.03125 -5.046875 L 0.03125 -5.40625 L 3.921875 -5.40625 L 3.921875 -5.046875 L 2.171875 -5.046875 Z M 2.171875 0 "/></g></g></g><g fill="#ffffff" fill-opacity="1"><g transform="translate(266.845898, 296.606568)"><g><path d="M 4.734375 -5.40625 L 4.734375 -1.90625 C 4.734375 -1.28125 4.550781 -0.789062 4.1875 -0.4375 C 3.832031 -0.09375 3.332031 0.078125 2.6875 0.078125 C 2.0625 0.078125 1.570312 -0.0976562 1.21875 -0.453125 C 0.875 -0.804688 0.703125 -1.296875 0.703125 -1.921875 L 0.703125 -5.40625 L 1.078125 -5.40625 L 1.078125 -1.90625 C 1.078125 -1.382812 1.222656 -0.976562 1.515625 -0.6875 C 1.804688 -0.40625 2.210938 -0.265625 2.734375 -0.265625 C 3.253906 -0.265625 3.65625 -0.40625 3.9375 -0.6875 C 4.21875 -0.96875 4.359375 -1.363281 4.359375 -1.875 L 4.359375 -5.40625 Z M 4.734375 -5.40625 "/></g></g></g><g fill="#ffffff" fill-opacity="1"><g transform="translate(275.209667, 296.606568)"><g><path d="M 1.140625 -2.359375 L 1.140625 0 L 0.765625 0 L 0.765625 -5.40625 L 2.046875 -5.40625 C 2.710938 -5.40625 3.207031 -5.28125 3.53125 -5.03125 C 3.851562 -4.78125 4.015625 -4.40625 4.015625 -3.90625 C 4.015625 -3.550781 3.914062 -3.25 3.71875 -3 C 3.53125 -2.75 3.242188 -2.566406 2.859375 -2.453125 L 4.328125 0 L 3.875 0 L 2.484375 -2.359375 Z M 1.140625 -2.671875 L 2.171875 -2.671875 C 2.628906 -2.671875 2.984375 -2.769531 3.234375 -2.96875 C 3.484375 -3.175781 3.609375 -3.476562 3.609375 -3.875 C 3.609375 -4.289062 3.484375 -4.59375 3.234375 -4.78125 C 2.992188 -4.96875 2.59375 -5.0625 2.03125 -5.0625 L 1.140625 -5.0625 Z M 1.140625 -2.671875 "/></g></g></g><g fill="#ffffff" fill-opacity="1"><g transform="translate(282.628368, 296.606568)"><g><path d="M 3.71875 0 L 0.765625 0 L 0.765625 -5.40625 L 3.71875 -5.40625 L 3.71875 -5.046875 L 1.140625 -5.046875 L 1.140625 -3.015625 L 3.578125 -3.015625 L 3.578125 -2.65625 L 1.140625 -2.65625 L 1.140625 -0.34375 L 3.71875 -0.34375 Z M 3.71875 0 "/></g></g></g><g clip-path="url(#54d5e7fc4b)"><path fill="#000000" d="M 180.007812 206.273438 C 180.007812 176.714844 180.007812 147.152344 180.007812 117.585938 L 160.328125 128.953125 L 160.328125 147.765625 L 134.34375 147.765625 L 134.34375 126.917969 C 158.617188 112.894531 182.894531 98.882812 207.175781 84.859375 L 187.496094 73.5 C 163.21875 87.519531 138.9375 101.535156 114.660156 115.554688 C 114.660156 143.589844 114.660156 171.625 114.660156 199.660156 L 134.34375 211.023438 L 134.34375 167.445312 L 160.328125 167.445312 L 160.328125 217.636719 Z M 180.007812 206.273438 " fill-opacity="1" fill-rule="nonzero"/></g><g clip-path="url(#f36386217a)"><path fill="#000000" d="M 260.335938 138.273438 L 260.335938 115.554688 L 221.933594 93.382812 C 212.957031 98.570312 203.972656 103.753906 194.996094 108.941406 C 194.996094 138.503906 194.996094 168.0625 194.996094 197.621094 L 214.667969 186.261719 L 214.667969 167.445312 L 240.660156 167.445312 L 240.660156 188.292969 C 216.386719 202.316406 192.101562 216.332031 167.828125 230.347656 L 187.496094 241.710938 L 260.332031 199.660156 C 260.332031 182.363281 260.332031 165.0625 260.332031 147.765625 L 214.667969 147.765625 L 214.667969 111.910156 Z M 260.335938 138.273438 " fill-opacity="1" fill-rule="nonzero"/></g></svg>